# xmcd CD database file
#
# Track frame offsets:
#	183
#	14218
#	29375
#	42928
#	70800
#	84180
#	98388
#	106923
#	130368
#	155500
#	167898
#	186938
#	203320
#	216420
#	242263
#	252325
#
# Disc length: 3466 seconds
#
# Revision: 0
# Processed by: cddbd v1.5.1PL0 Copyright (c) Steve Scherf et al.
# Submitted via: CDex 1.51
#
DISCID=d00d8810
DTITLE=Trevor Knight - A Little Knight Music [CD2]
DYEAR=1900
DGENRE=Country
TTITLE0=Travel on
TTITLE1=Blowin' in the wind
TTITLE2=Kisses sweeter than wine
TTITLE3=Medley 'Clementine'
TTITLE4=Jamaica Farewell
TTITLE5=Where have all the flowers gone
TTITLE6=If I had a hammer
TTITLE7=Medley 'Pick a bale of cotton'
TTITLE8=Medley 'Banana boat song'
TTITLE9=Times they are a changing
TTITLE10=Streets of London
TTITLE11=Last thing on my mind
TTITLE12=Will the circle be unbroken
TTITLE13=Medley 'Gypsy rover'
TTITLE14=Amazing Grace
TTITLE15=Babylon
EXTD=
EXTT0=
EXTT1=
EXTT2=
EXTT3=
EXTT4=
EXTT5=
EXTT6=
EXTT7=
EXTT8=
EXTT9=
EXTT10=
EXTT11=
EXTT12=
EXTT13=
EXTT14=
EXTT15=
PLAYORDER=
